<svg width="160" height="35" viewBox="0 0 160 35" fill="none" xmlns="http://www.w3.org/2000/svg">
<path d="M141.861 35C139.338 35 136.99 34.5848 134.818 33.7544C132.678 32.8921 130.81 31.6944 129.213 30.1613C127.648 28.5963 126.418 26.7917 125.524 24.7476C124.662 22.6716 124.23 20.4039 124.23 17.9446C124.23 15.4853 124.662 13.2336 125.524 11.1895C126.418 9.11346 127.648 7.3089 129.213 5.77583C130.81 4.21082 132.678 3.01311 134.818 2.18269C136.958 1.32034 139.306 0.88916 141.861 0.88916C144.384 0.88916 146.716 1.32034 148.855 2.18269C150.995 3.01311 152.848 4.19485 154.413 5.72792C156.01 7.261 157.239 9.06555 158.102 11.1416C158.996 13.2176 159.443 15.4853 159.443 17.9446C159.443 20.4039 158.996 22.6716 158.102 24.7476C157.239 26.8237 156.01 28.6282 154.413 30.1613C152.848 31.6944 150.995 32.8921 148.855 33.7544C146.716 34.5848 144.384 35 141.861 35ZM141.861 31.8381C143.873 31.8381 145.725 31.5027 147.418 30.832C149.143 30.1293 150.628 29.1552 151.874 27.9096C153.151 26.632 154.141 25.1628 154.844 23.502C155.547 21.8092 155.898 19.9568 155.898 17.9446C155.898 15.9324 155.547 14.0959 154.844 12.4351C154.141 10.7424 153.151 9.27316 151.874 8.02753C150.628 6.74997 149.143 5.77583 147.418 5.10511C145.725 4.40245 143.873 4.05112 141.861 4.05112C139.849 4.05112 137.98 4.40245 136.256 5.10511C134.531 5.77583 133.03 6.74997 131.752 8.02753C130.506 9.27316 129.516 10.7424 128.782 12.4351C128.079 14.0959 127.728 15.9324 127.728 17.9446C127.728 19.9248 128.079 21.7613 128.782 23.4541C129.516 25.1469 130.506 26.632 131.752 27.9096C133.03 29.1552 134.531 30.1293 136.256 30.832C137.98 31.5027 139.849 31.8381 141.861 31.8381Z" fill="#E35D23"/>
<path d="M85.3926 34.7125V1.17651H97.9446C100.787 1.17651 103.231 1.63963 105.275 2.56586C107.319 3.46016 108.884 4.76965 109.97 6.49436C111.088 8.18713 111.646 10.2472 111.646 12.6746C111.646 15.0381 111.088 17.0822 109.97 18.8069C108.884 20.4996 107.319 21.8091 105.275 22.7354C103.231 23.6297 100.787 24.0768 97.9446 24.0768H87.3568L88.9378 22.4479V34.7125H85.3926ZM108.293 34.7125L99.6693 22.5437H103.502L112.173 34.7125H108.293ZM88.9378 22.7354L87.3568 21.0586H97.8488C101.202 21.0586 103.742 20.324 105.466 18.8548C107.223 17.3856 108.101 15.3255 108.101 12.6746C108.101 9.99169 107.223 7.91565 105.466 6.44645C103.742 4.97726 101.202 4.24266 97.8488 4.24266H87.3568L88.9378 2.56586V22.7354Z" fill="#E35D23"/>
<path d="M49.3221 16.1719H67.0483V19.1901H49.3221V16.1719ZM49.7054 31.6463H69.8749V34.7125H46.1602V1.17651H69.1563V4.24266H49.7054V31.6463Z" fill="#E35D23"/>
<path d="M24.5292 1.17651H28.0265V34.7125H24.5292V1.17651ZM3.54523 34.7125H0V1.17651H3.54523V34.7125ZM24.8645 19.238H3.16196V16.124H24.8645V19.238Z" fill="#E35D23"/>
</svg>
