<svg width="29" height="30" viewBox="0 0 29 30" fill="none" xmlns="http://www.w3.org/2000/svg">
<path d="M14.5 9.5625C13.4246 9.5625 12.3733 9.8814 11.4791 10.4789C10.5849 11.0764 9.88796 11.9256 9.47641 12.9192C9.06485 13.9127 8.95717 15.006 9.16698 16.0608C9.37679 17.1156 9.89466 18.0844 10.6551 18.8449C11.4156 19.6053 12.3844 20.1232 13.4392 20.333C14.494 20.5428 15.5873 20.4351 16.5808 20.0236C17.5744 19.612 18.4236 18.9151 19.0211 18.0209C19.6186 17.1267 19.9375 16.0754 19.9375 15C19.936 13.5583 19.3626 12.1762 18.3432 11.1568C17.3238 10.1374 15.9417 9.564 14.5 9.5625ZM14.5 17.7188C13.9623 17.7188 13.4366 17.5593 12.9895 17.2606C12.5424 16.9618 12.194 16.5372 11.9882 16.0404C11.7824 15.5436 11.7286 14.997 11.8335 14.4696C11.9384 13.9422 12.1973 13.4578 12.5776 13.0776C12.9578 12.6973 13.4422 12.4384 13.9696 12.3335C14.497 12.2286 15.0436 12.2824 15.5404 12.4882C16.0372 12.694 16.4618 13.0424 16.7606 13.4895C17.0593 13.9366 17.2188 14.4623 17.2188 15C17.2187 15.7211 16.9323 16.4126 16.4224 16.9224C15.9126 17.4323 15.2211 17.7187 14.5 17.7188ZM19.9375 2.76562H9.0625C7.2605 2.76772 5.53291 3.48449 4.2587 4.7587C2.98449 6.03291 2.26772 7.7605 2.26562 9.5625V20.4375C2.26772 22.2395 2.98449 23.9671 4.2587 25.2413C5.53291 26.5155 7.2605 27.2323 9.0625 27.2344H19.9375C21.7395 27.2323 23.4671 26.5155 24.7413 25.2413C26.0155 23.9671 26.7323 22.2395 26.7344 20.4375V9.5625C26.7323 7.7605 26.0155 6.03291 24.7413 4.7587C23.4671 3.48449 21.7395 2.76772 19.9375 2.76562ZM24.0156 20.4375C24.0156 21.5191 23.586 22.5564 22.8212 23.3212C22.0564 24.086 21.0191 24.5156 19.9375 24.5156H9.0625C7.98091 24.5156 6.94363 24.086 6.17883 23.3212C5.41403 22.5564 4.98438 21.5191 4.98438 20.4375V9.5625C4.98438 8.48091 5.41403 7.44363 6.17883 6.67883C6.94363 5.91403 7.98091 5.48438 9.0625 5.48438H19.9375C21.0191 5.48438 22.0564 5.91403 22.8212 6.67883C23.586 7.44363 24.0156 8.48091 24.0156 9.5625V20.4375ZM22.2031 9.10938C22.2031 9.46785 22.0968 9.81828 21.8977 10.1163C21.6985 10.4144 21.4154 10.6467 21.0842 10.7839C20.753 10.9211 20.3886 10.957 20.037 10.887C19.6854 10.8171 19.3625 10.6445 19.109 10.391C18.8555 10.1375 18.6829 9.81457 18.613 9.46298C18.543 9.11139 18.5789 8.74695 18.7161 8.41576C18.8533 8.08457 19.0856 7.8015 19.3837 7.60234C19.6817 7.40318 20.0321 7.29688 20.3906 7.29688C20.8713 7.29688 21.3323 7.48783 21.6723 7.82774C22.0122 8.16765 22.2031 8.62867 22.2031 9.10938Z" fill="#333333"/>
</svg>
