<svg width="32" height="32" viewBox="0 0 32 32" fill="none" xmlns="http://www.w3.org/2000/svg">
<path d="M6.6439 9.5959C8.25509 9.5959 9.56123 8.28976 9.56123 6.67856C9.56123 5.06736 8.25509 3.76123 6.6439 3.76123C5.0327 3.76123 3.72656 5.06736 3.72656 6.67856C3.72656 8.28976 5.0327 9.5959 6.6439 9.5959Z" fill="#333333"/>
<path d="M12.3163 11.8067V27.9921H17.3416V19.9881C17.3416 17.8761 17.739 15.8307 20.3576 15.8307C22.9403 15.8307 22.9723 18.2454 22.9723 20.1214V27.9934H28.0003V19.1174C28.0003 14.7574 27.0616 11.4067 21.9656 11.4067C19.519 11.4067 17.879 12.7494 17.2083 14.0201H17.1403V11.8067H12.3163ZM4.12695 11.8067H9.16029V27.9921H4.12695V11.8067Z" fill="#333333"/>
</svg>
